<svg xmlns="http://www.w3.org/2000/svg" width="400" height="560" viewBox="0 0 400 560">
  <defs>
    <linearGradient id="sky" x1="0" y1="0" x2="0" y2="1">
      <stop offset="0%" stop-color="#0f172a"/>
      <stop offset="55%" stop-color="#334155"/>
      <stop offset="100%" stop-color="#0f172a"/>
    </linearGradient>
    <radialGradient id="glow" cx="0.5" cy="0.35" r="0.55">
      <stop offset="0%" stop-color="#22d3ee" stop-opacity="0.55"/>
      <stop offset="100%" stop-color="#0f172a" stop-opacity="0"/>
    </radialGradient>
    <linearGradient id="band" x1="0" y1="0" x2="1" y2="0">
      <stop offset="0%" stop-color="#22d3ee" stop-opacity="0"/>
      <stop offset="50%" stop-color="#22d3ee" stop-opacity="0.9"/>
      <stop offset="100%" stop-color="#22d3ee" stop-opacity="0"/>
    </linearGradient>
  </defs>
  <rect width="400" height="560" fill="url(#sky)"/>
  <rect width="400" height="560" fill="url(#glow)"/>
  <circle cx="224" cy="266" r="1.2" fill="#fff" opacity="0.35"/><circle cx="292" cy="214" r="2.2" fill="#fff" opacity="0.47"/><circle cx="360" cy="162" r="3.2" fill="#fff" opacity="0.59"/><circle cx="68" cy="110" r="1.2" fill="#fff" opacity="0.71"/><circle cx="136" cy="58" r="2.2" fill="#fff" opacity="0.35"/><circle cx="204" cy="306" r="3.2" fill="#fff" opacity="0.47"/><circle cx="272" cy="254" r="1.2" fill="#fff" opacity="0.59"/><circle cx="340" cy="202" r="2.2" fill="#fff" opacity="0.71"/><circle cx="48" cy="150" r="3.2" fill="#fff" opacity="0.35"/><circle cx="116" cy="98" r="1.2" fill="#fff" opacity="0.47"/><circle cx="184" cy="46" r="2.2" fill="#fff" opacity="0.59"/><circle cx="252" cy="294" r="3.2" fill="#fff" opacity="0.71"/><circle cx="320" cy="242" r="1.2" fill="#fff" opacity="0.35"/><circle cx="28" cy="190" r="2.2" fill="#fff" opacity="0.47"/><circle cx="96" cy="138" r="3.2" fill="#fff" opacity="0.59"/><circle cx="164" cy="86" r="1.2" fill="#fff" opacity="0.71"/><circle cx="232" cy="34" r="2.2" fill="#fff" opacity="0.35"/><circle cx="300" cy="282" r="3.2" fill="#fff" opacity="0.47"/>
  <circle cx="200" cy="190" r="78" fill="#0f172a" opacity="0.45"/>
  <circle cx="200" cy="190" r="64" fill="none" stroke="#22d3ee" stroke-width="3" opacity="0.85"/>
  <text x="200" y="218" font-family="Georgia, 'Times New Roman', serif" font-size="84" font-weight="700" fill="#22d3ee" text-anchor="middle" opacity="0.95">M</text>
  <rect x="40" y="400" width="320" height="2" fill="url(#band)"/>
  <rect x="0" y="420" width="400" height="140" fill="#0f172a" opacity="0.72"/>
  <text x="200" y="455" font-family="Georgia, 'Times New Roman', serif" font-size="22" font-weight="700" fill="#ffffff" text-anchor="middle">Mob Psycho 100</text>
  <text x="200" y="540" font-family="Arial, sans-serif" font-size="11" letter-spacing="3" fill="#22d3ee" text-anchor="middle">MANGAVIEW</text>
  <title>Mob Psycho 100</title>
</svg>